<svg version="1" xmlns="http://www.w3.org/2000/svg" width="720" height="720" viewBox="0 0 540.000000 540.000000"><path d="M114.4 70.3c-7.9 3-13.6 9.2-15.2 16.4-3.1 14.1 5.3 27 19 29 2.9.5 72.1.8 153.8.8 118.1-.1 149.4-.4 153.1-1.4 13.1-3.7 20.4-20.5 14.1-32.7-2.7-5.2-9-10.7-14.1-12.2-5.5-1.7-306.3-1.6-310.7.1zM66.3 141.9c-12.4 4.2-18.5 18.7-13.3 30.9 1.2 2.9 3.9 6.6 5.8 8.3 7.6 6.7-9.7 6.2 211.2 6.2 178.1 0 200.9-.2 204.1-1.5 9.5-4.1 15.5-13.9 14.6-23.9-.6-6.7-2.5-10.6-7.3-15.3-7.3-7.1 9-6.6-211.3-6.6-188.8.1-198.9.2-203.8 1.9zM68.3 212c-5.7 1.3-11.9 6.4-15 12.3-.9 1.8-1.8 6-1.9 9.4-.3 5 .2 7.1 2.4 11.5 3.2 6.3 9.3 11.3 15.4 12.5 2.4.4 93.6.8 202.8.7 180.1-.1 198.8-.3 202.1-1.7 6.7-3 12.3-9.1 13.6-14.7 2.4-9.8.4-17.8-5.9-23.9-7.8-7.7 9.8-7.1-211.7-7-109.2.1-200.1.4-201.8.9zM67 283.6c-8.8 2.8-15 11-15.7 20.9-.4 5.2-.1 6.8 2.4 11.4 3.3 6.5 8.6 11 14.6 12.5 4.5 1.1 350.3 1.4 355.9.3 6.5-1.3 14.1-8.8 16.2-16.1 3.3-11.2-.8-21-11.9-28.2-2.9-1.9-6.9-1.9-180-2.1-151.8-.1-177.6 0-181.5 1.3zM66.9 354.5c-8.5 2.7-15.9 12.8-15.9 21.7 0 9.3 5.4 17.9 13.8 21.9l4.7 2.4 58.5-.1c57.9 0 58.5 0 63.1-2.2 18-8.4 18.1-33.9.2-42.8-3.6-1.8-7.1-1.9-61.8-2.1-48.1-.2-58.8.1-62.6 1.2zM68.8 425.1c-1 .6-1.8.7-1.8.4 0-1.1-7.4 3.8-9.8 6.4-3.6 3.9-6.2 10.7-6.2 16 0 9.7 8 20.1 17.3 22.5 3.1.8 22.5 1.1 61.3 1.1l56.9-.1 4.8-2.3c5.1-2.5 10.8-8.7 12.5-13.7.5-1.7.9-5.5.8-8.5-.3-8.7-4.8-15.8-12.7-20.1l-4.4-2.3-58.5-.2c-37-.1-59.1.2-60.2.8z"/></svg>